<?xml version="1.0" standalone="no"?>
<!DOCTYPE svg PUBLIC "-//W3C//DTD SVG 20010904//EN"
 "http://www.w3.org/TR/2001/REC-SVG-20010904/DTD/svg10.dtd">
<svg version="1.0" xmlns="http://www.w3.org/2000/svg"
 width="700.000000pt" height="700.000000pt" viewBox="0 0 700.000000 700.000000"
 preserveAspectRatio="xMidYMid meet">
<metadata>
Created by potrace 1.14, written by Peter Selinger 2001-2017
</metadata>
<g transform="translate(0.000000,700.000000) scale(0.100000,-0.100000)"
fill="#000000" stroke="none">
<path d="M3383 5955 c-29 -8 -70 -23 -90 -34 -56 -28 -2302 -2022 -2341 -2077
-17 -26 -41 -76 -52 -113 -20 -64 -20 -90 -18 -763 l3 -697 1725 1520 c949
836 1733 1528 1743 1538 17 17 4 29 -295 295 -172 153 -330 287 -350 297 -93
47 -224 61 -325 34z"/>
<path d="M4178 4787 c-224 -199 -419 -374 -434 -388 l-26 -27 621 -552 621
-552 0 -1195 0 -1194 423 3 422 3 68 33 c88 43 166 121 209 209 l33 68 3 1235
c2 1214 2 1236 -18 1301 -11 37 -37 89 -57 117 -35 45 -1437 1303 -1452 1301
-3 0 -189 -163 -413 -362z"/>
<path d="M1452 2378 l-573 -510 3 -337 3 -336 34 -69 c43 -88 120 -165 208
-208 l68 -33 423 -3 422 -3 0 1005 c0 554 -3 1006 -7 1005 -5 0 -266 -230
-581 -511z"/>
<path d="M2340 1460 l0 -580 1160 0 1160 0 0 580 0 580 -1160 0 -1160 0 0
-580z"/>
</g>
</svg>
